<?xml version="1.0" standalone="no"?>
<!DOCTYPE svg PUBLIC "-//W3C//DTD SVG 20010904//EN"
 "http://www.w3.org/TR/2001/REC-SVG-20010904/DTD/svg10.dtd">
<svg version="1.0" xmlns="http://www.w3.org/2000/svg"
 width="96.000000pt" height="96.000000pt" viewBox="0 0 96.000000 96.000000"
 preserveAspectRatio="xMidYMid meet">

<g transform="translate(0.000000,96.000000) scale(0.100000,-0.100000)"
fill="#000000" stroke="none">
<path d="M120 892 c-68 -33 -70 -47 -70 -412 0 -289 2 -329 18 -360 29 -59 66
-71 222 -68 l135 3 0 25 0 25 -135 3 c-192 4 -180 -15 -180 274 l0 228 369 0
370 0 3 -37 c3 -33 6 -38 28 -38 l25 0 3 135 c3 156 -9 193 -68 222 -31 16
-71 18 -360 18 -289 0 -329 -2 -360 -18z m707 -64 c20 -18 23 -31 23 -90 l0
-68 -370 0 -370 0 0 67 c0 55 4 71 22 90 l21 23 326 0 c320 0 325 0 348 -22z"/>
<path d="M184 776 c-10 -26 4 -48 28 -44 17 2 23 10 23 28 0 18 -6 26 -23 28
-13 2 -25 -3 -28 -12z"/>
<path d="M284 776 c-10 -26 4 -48 28 -44 17 2 23 10 23 28 0 18 -6 26 -23 28
-13 2 -25 -3 -28 -12z"/>
<path d="M384 776 c-10 -26 4 -48 28 -44 17 2 23 10 23 28 0 18 -6 26 -23 28
-13 2 -25 -3 -28 -12z"/>
<path d="M571 533 c-88 -31 -161 -136 -161 -233 0 -132 118 -250 250 -250 60
0 130 30 175 75 188 188 -12 497 -264 408z m157 -58 c160 -67 160 -283 0 -350
-92 -38 -195 5 -239 100 -44 94 -2 201 96 246 49 23 94 24 143 4z"/>
<path d="M637 414 c-4 -4 -7 -34 -7 -67 0 -59 0 -60 -19 -43 -24 22 -54 17
-59 -8 -5 -22 84 -116 108 -116 24 0 113 94 108 116 -4 25 -35 30 -58 9 -18
-17 -19 -15 -22 46 -3 56 -6 64 -23 67 -12 2 -24 0 -28 -4z"/>
</g>
</svg>
