<?xml version="1.0" standalone="no"?>
<!DOCTYPE svg PUBLIC "-//W3C//DTD SVG 20010904//EN"
 "http://www.w3.org/TR/2001/REC-SVG-20010904/DTD/svg10.dtd">
<svg version="1.0" xmlns="http://www.w3.org/2000/svg"
 width="100.000000pt" height="100.000000pt" viewBox="0 0 100.000000 100.000000"
 preserveAspectRatio="xMidYMid meet">

<g transform="translate(0.000000,100.000000) scale(0.100000,-0.100000)"
fill="#000000" stroke="none">
<path d="M60 900 c-16 -16 -20 -33 -20 -90 l0 -70 460 0 460 0 0 30 c0 17 -9
39 -20 50 -19 19 -33 20 -299 20 l-279 0 -32 40 -32 40 -109 0 c-96 0 -111 -2
-129 -20z"/>
<path d="M47 693 c-4 -3 -7 -134 -7 -290 0 -270 1 -284 20 -303 19 -19 33 -20
440 -20 408 0 421 1 440 20 20 20 20 31 18 308 l-3 287 -451 3 c-248 1 -454
-1 -457 -5z m753 -113 c11 -11 20 -29 20 -40 0 -26 -34 -60 -60 -60 -11 0 -29
9 -40 20 -11 11 -20 29 -20 40 0 11 9 29 20 40 11 11 29 20 40 20 11 0 29 -9
40 -20z m-309 -150 l83 -90 43 42 43 43 92 -93 c73 -73 90 -94 80 -104 -10
-10 -29 4 -92 67 l-80 80 -80 -80 c-62 -62 -82 -77 -92 -67 -9 9 -5 19 21 46
l33 34 -20 29 c-11 15 -44 51 -72 78 l-51 50 -108 -114 c-67 -72 -112 -112
-119 -107 -7 4 -12 11 -12 16 0 12 229 260 240 260 5 0 46 -41 91 -90z"/>
</g>
</svg>
