<?xml version="1.0" standalone="no"?>
<!DOCTYPE svg PUBLIC "-//W3C//DTD SVG 20010904//EN"
 "http://www.w3.org/TR/2001/REC-SVG-20010904/DTD/svg10.dtd">
<svg version="1.0" xmlns="http://www.w3.org/2000/svg"
 width="100.000000pt" height="100.000000pt" viewBox="0 0 100.000000 100.000000"
 preserveAspectRatio="xMidYMid meet">

<g transform="translate(0.000000,100.000000) scale(0.100000,-0.100000)"
fill="#000000" stroke="none">
<path d="M122 877 c-22 -23 -22 -28 -22 -378 l0 -356 23 -21 c23 -22 28 -22
378 -22 l356 0 21 23 c22 23 22 28 22 378 l0 356 -23 21 c-23 22 -28 22 -378
22 l-356 0 -21 -23z m420 -117 c45 -13 95 -68 103 -114 11 -56 -4 -96 -55
-150 -26 -28 -51 -61 -54 -73 -10 -32 -66 -33 -66 -2 0 29 16 57 67 113 33 37
43 56 43 83 0 44 -37 83 -80 83 -33 0 -80 -38 -80 -65 0 -11 -10 -15 -35 -15
-39 0 -41 6 -21 53 17 40 55 75 92 87 39 11 44 11 86 0z m-1 -431 c26 -26 21
-57 -13 -82 l-28 -21 -27 21 c-16 11 -29 29 -31 41 -4 25 30 62 58 62 11 0 29
-9 41 -21z"/>
</g>
</svg>
