<?xml version="1.0" standalone="no"?>
<!DOCTYPE svg PUBLIC "-//W3C//DTD SVG 20010904//EN"
 "http://www.w3.org/TR/2001/REC-SVG-20010904/DTD/svg10.dtd">
<svg version="1.0" xmlns="http://www.w3.org/2000/svg"
 width="512.000000pt" height="512.000000pt" viewBox="0 0 512.000000 512.000000"
 preserveAspectRatio="xMidYMid meet">

<g transform="translate(0.000000,512.000000) scale(0.100000,-0.100000)"
fill="#000000" stroke="none">
<path d="M2405 5106 c-144 -29 -264 -84 -376 -174 -345 -273 -422 -764 -180
-1135 75 -114 199 -224 322 -286 142 -71 233 -93 384 -94 234 0 422 74 587
231 135 129 218 278 253 451 23 112 16 294 -15 401 -48 166 -165 340 -298 441
-80 61 -223 131 -312 154 -90 22 -277 28 -365 11z"/>
<path d="M1265 4031 c-22 -10 -83 -57 -136 -104 -328 -292 -559 -691 -653
-1127 -49 -227 -45 -306 17 -376 118 -136 332 -77 366 99 5 29 17 95 27 147
64 359 264 707 551 960 95 83 123 131 123 209 0 151 -159 255 -295 192z"/>
<path d="M3775 3979 c-45 -13 -105 -67 -126 -113 -22 -50 -24 -124 -4 -172 8
-20 60 -82 116 -138 144 -147 237 -276 319 -441 98 -197 123 -279 181 -587 33
-182 246 -242 367 -104 49 56 58 100 43 219 -27 216 -115 493 -218 687 -141
266 -404 585 -528 641 -43 20 -101 23 -150 8z"/>
<path d="M745 2226 c-334 -66 -599 -317 -675 -640 -26 -109 -28 -282 -5 -381
93 -404 433 -672 845 -668 573 5 974 565 798 1113 -70 217 -226 398 -435 503
-142 72 -370 104 -528 73z"/>
<path d="M4087 2230 c-422 -77 -717 -425 -717 -847 0 -385 265 -724 645 -824
106 -28 279 -30 388 -5 255 58 464 220 577 446 69 139 91 232 91 393 0 255
-107 483 -306 650 -79 67 -235 146 -335 172 -76 19 -274 28 -343 15z"/>
<path d="M1846 735 c-148 -52 -184 -261 -62 -362 59 -48 298 -115 516 -144 52
-7 169 -12 260 -12 236 0 420 27 637 94 116 36 166 71 194 133 64 141 -40 306
-192 306 -15 0 -69 -13 -120 -29 -233 -71 -471 -96 -694 -71 -121 14 -231 36
-344 71 -104 32 -138 35 -195 14z"/>
</g>
</svg>
