<?xml version="1.0" standalone="no"?>
<!DOCTYPE svg PUBLIC "-//W3C//DTD SVG 20010904//EN"
 "http://www.w3.org/TR/2001/REC-SVG-20010904/DTD/svg10.dtd">
<svg version="1.0" xmlns="http://www.w3.org/2000/svg"
 width="64.000000pt" height="64.000000pt" viewBox="0 0 64.000000 64.000000"
 preserveAspectRatio="xMidYMid meet">

<g transform="translate(0.000000,64.000000) scale(0.100000,-0.100000)"
fill="#000000" stroke="none">
<path d="M265 570 c-23 -24 -26 -33 -17 -42 10 -10 19 -6 43 19 18 17 28 36
25 42 -11 17 -20 14 -51 -19z"/>
<path d="M555 580 c-14 -16 -16 -23 -7 -32 10 -10 17 -7 33 9 12 11 18 26 15
32 -10 16 -21 14 -41 -9z"/>
<path d="M435 460 c-47 -47 -57 -62 -47 -72 10 -10 25 0 72 47 33 33 59 64 57
69 -8 23 -26 13 -82 -44z"/>
<path d="M125 430 c-38 -39 -47 -52 -37 -62 10 -10 23 -1 62 37 48 47 56 65
34 72 -5 2 -32 -19 -59 -47z"/>
<path d="M229 383 l-25 -78 -84 -5 -83 -5 61 -43 c34 -23 64 -47 66 -51 3 -5
-6 -41 -19 -81 -14 -41 -23 -75 -20 -78 2 -3 29 14 60 37 30 23 61 44 68 47 7
2 41 -16 76 -42 34 -25 65 -44 67 -41 2 2 -7 36 -21 77 -13 40 -22 76 -19 81
2 4 32 28 66 51 l61 43 -83 5 -84 5 -25 78 c-14 42 -28 77 -31 77 -3 0 -17
-35 -31 -77z"/>
<path d="M555 260 c-14 -16 -16 -23 -7 -32 10 -10 17 -7 33 9 12 11 18 26 15
32 -10 16 -21 14 -41 -9z"/>
<path d="M465 170 c-23 -24 -26 -33 -17 -42 10 -10 19 -6 43 19 18 17 28 36
25 42 -11 17 -20 14 -51 -19z"/>
</g>
</svg>
